#!OML:ASF E:\Style4\Style4.ASF
:FULLY-SPECIFIED
:DEGREES
3235
root -0.0289334 17.4477 -2.99319 3.39799 -4.67584 2.39759
lowerback 15.364 2.54438 0.840489
upperback 8.86887 3.43037 1.56779
thorax 0.741453 1.69929 0.674253
lowerneck 2.84777 -7.14695 -6.34182
upperneck 9.92521 -9.76588 3.2551
head 3.25166 -4.95407 1.93746
rclavicle -2.34566e-014 1.90833e-014
rhumerus -338.847 21.0644 -421.454
rradius 73.2992
rwrist 19.72
rhand -28.2987 15.9124
rfingers 7.12502
rthumb -1.67436 -14.0608
lclavicle -2.34566e-014 1.90833e-014
lhumerus -21.9169 -49.5716 75.5116
lradius 106.861
lwrist -8.30387
lhand -22.8053 19.2068
lfingers 7.12502
lthumb 3.63111 49.1556
rfemur -27.2198 1.1399 15.3144
rtibia 41.9071
rfoot -17.9063 -8.25415
rtoes -10.1144
lfemur -23.3664 5.36696 -22.4742
ltibia 40.7343
lfoot -21.4205 9.32711
ltoes -8.6938
3236
root -0.0257273 17.417 -3.01683 3.34896 -4.56695 2.47419
lowerback 15.5307 2.53928 0.870078
upperback 9.02847 3.42645 1.58839
thorax 0.824906 1.69815 0.677534
lowerneck 2.99036 -7.24481 -6.38335
upperneck 9.84003 -9.89696 3.20849
head 3.20324 -5.02161 1.93132
rclavicle -4.57205e-014 2.06736e-014
rhumerus -338.037 20.6453 -421.364
rradius 71.2326
rwrist 19.935
rhand -27.7737 15.5103
rfingers 7.12502
rthumb -1.16733 -14.4662
lclavicle -4.57205e-014 2.06736e-014
lhumerus -21.1423 -49.667 75.1397
lradius 107.002
lwrist -8.34459
lhand -22.917 19.2042
lfingers 7.12502
lthumb 3.52328 49.1548
rfemur -27.5832 0.962679 15.2294
rtibia 42.5019
rfoot -18.1143 -8.12347
rtoes -9.78262
lfemur -23.7845 5.33674 -22.5651
ltibia 41.4001
lfoot -21.6194 9.19462
ltoes -8.62154
3237
root -0.0222158 17.3867 -3.04017 3.33677 -4.55351 2.5121
lowerback 15.6881 2.5619 0.901546
upperback 9.14836 3.45942 1.61935
thorax 0.870506 1.71497 0.684362
lowerneck 3.2376 -7.31876 -6.52422
upperneck 9.7644 -10.0123 3.28185
head 3.1531 -5.08275 1.98673
rclavicle 1.59028e-015 7.95139e-016
rhumerus -337.236 20.3107 -421.249
rradius 69.1574
rwrist 19.8109
rhand -27.3258 15.5875
rfingers 7.12502
rthumb -0.734709 -14.3909
lclavicle 1.59028e-015 7.95139e-016
lhumerus -20.4195 -49.7274 74.8089
lradius 107.136
lwrist -8.40998
lhand -22.962 19.2937
lfingers 7.12502
lthumb 3.4798 49.2451
rfemur -28.0082 0.871683 15.1789
rtibia 43.0904
rfoot -18.3174 -8.04202
rtoes -9.79445
lfemur -24.2412 5.41687 -22.631
ltibia 42.0525
lfoot -21.8072 9.08327
ltoes -9.11732
3238
root -0.020325 17.3555 -3.06202 3.37373 -4.58593 2.44593
lowerback 15.7891 2.57953 0.997039
upperback 9.27199 3.49301 1.66342
thorax 0.952806 1.73419 0.671719
lowerneck 3.39257 -7.37756 -6.74578
upperneck 9.82793 -10.1155 3.47901
head 3.18169 -5.13761 2.09214
rclavicle 5.1684e-014 -3.97569e-015
rhumerus -336.325 20.0942 -421.075
rradius 67.1598
rwrist 19.2843
rhand -26.8618 15.8204
rfingers 7.12502
rthumb -0.28657 -14.1592
lclavicle 5.1684e-014 -3.97569e-015
lhumerus -19.599 -49.7222 74.3713
lradius 107.215
lwrist -8.40698
lhand -22.9251 19.1766
lfingers 7.12502
lthumb 3.51542 49.1274
rfemur -28.4725 0.894813 15.2479
rtibia 43.6788
rfoot -18.4459 -8.07803
rtoes -10.0974
lfemur -24.7139 5.5731 -22.5811
ltibia 42.6666
lfoot -21.9366 8.92694
ltoes -9.26533
3239
root -0.0175748 17.3287 -3.07788 3.39749 -4.6296 2.49979
lowerback 15.8177 2.61888 1.00907
upperback 9.41958 3.54238 1.64274
thorax 1.09765 1.76029 0.640123
lowerneck 3.56197 -7.46414 -6.81182
upperneck 9.74214 -10.244 3.55847
head 3.13918 -5.20197 2.13371
rclavicle -2.78299e-014 1.59028e-015
rhumerus -335.464 19.7408 -420.969
rradius 65.3433
rwrist 19.0053
rhand -26.2977 15.5439
rfingers 7.12502
rthumb 0.258197 -14.4357
lclavicle -2.78299e-014 1.59028e-015
lhumerus -18.6136 -49.8348 73.7316
lradius 107.304
lwrist -8.39135
lhand -22.9565 19.1656
lfingers 7.12502
lthumb 3.48513 49.1168
rfemur -28.8801 0.874451 15.1756
rtibia 44.2414
rfoot -18.6271 -8.01867
rtoes -10.1393
lfemur -25.1307 5.67495 -22.6667
ltibia 43.2586
lfoot -22.0932 8.89062
ltoes -8.97845
3240
root -0.0186059 17.3053 -3.09628 3.38492 -4.68873 2.60254
lowerback 15.9489 2.68458 0.945893
upperback 9.53596 3.61845 1.60247
thorax 1.15234 1.79691 0.620283
lowerneck 3.76132 -7.56778 -6.5693
upperneck 9.46928 -10.3624 3.27456
head 2.97973 -5.25866 2.00633
rclavicle -1.35174e-014 3.65764e-014
rhumerus -334.735 19.4039 -420.887
rradius 63.6944
rwrist 18.7541
rhand -25.8161 14.9729
rfingers 7.12502
rthumb 0.723358 -15.0056
lclavicle -1.35174e-014 3.65764e-014
lhumerus -17.6777 -50.014 73.0962
lradius 107.382
lwrist -8.39984
lhand -22.9919 19.158
lfingers 7.12502
lthumb 3.4509 49.1098
rfemur -29.2749 0.870206 15.0743
rtibia 44.8027
rfoot -18.7612 -8.03178
rtoes -10.389
lfemur -25.5059 5.81095 -22.7849
ltibia 43.8241
lfoot -22.2024 8.83746
ltoes -8.73358
